HIERARCHY
ROOT Hips
{
	OFFSET 0.000000 0.000000 0.000000
	CHANNELS 6 Xposition Yposition Zposition Xrotation Yrotation Zrotation
	JOINT LeftUpLeg_virtual
	{
		OFFSET 0.000000 0.000000 0.000000
		CHANNELS 3 Xrotation Yrotation Zrotation
		JOINT LeftUpLeg
		{
			OFFSET 10.205400 -3.823500 0.155100
			CHANNELS 3 Xrotation Yrotation Zrotation
			JOINT LeftLeg
			{
				OFFSET 0.708757 -12.982077 0.567790
				CHANNELS 3 Xrotation Yrotation Zrotation
				JOINT LeftFoot
				{
					OFFSET -0.708756 -10.717838 -2.184338
					CHANNELS 3 Xrotation Yrotation Zrotation
					JOINT LeftToeBase
					{
						OFFSET 0.108149 -7.191104 7.560241
						CHANNELS 3 Xrotation Yrotation Zrotation
						JOINT LeftToe_End
						{
							OFFSET 0.070230 0.081724 4.490308
							CHANNELS 3 Xrotation Yrotation Zrotation
							End Site
							{
								OFFSET 0 0 0
							}
						}
					}
				}
			}
		}
	}
	JOINT RightUpLeg_virtual
	{
		OFFSET 0.000000 0.000000 0.000000
		CHANNELS 3 Xrotation Yrotation Zrotation
		JOINT RightUpLeg
		{
			OFFSET -10.205400 -3.823500 0.005500
			CHANNELS 3 Xrotation Yrotation Zrotation
			JOINT RightLeg
			{
				OFFSET -0.708756 -12.982134 0.610632
				CHANNELS 3 Xrotation Yrotation Zrotation
				JOINT RightFoot
				{
					OFFSET 0.708754 -10.717769 -1.945823
					CHANNELS 3 Xrotation Yrotation Zrotation
					JOINT RightToeBase
					{
						OFFSET -0.108140 -7.191069 7.372968
						CHANNELS 3 Xrotation Yrotation Zrotation
						JOINT RightToe_End
						{
							OFFSET -0.070227 0.081735 4.479403
							CHANNELS 3 Xrotation Yrotation Zrotation
							End Site
							{
								OFFSET 0 0 0
							}
						}
					}
				}
			}
		}
	}
	JOINT Spine_virtual
	{
		OFFSET 0.000000 0.000000 0.000000
		CHANNELS 3 Xrotation Yrotation Zrotation
		JOINT Spine
		{
			OFFSET 0.000000 6.876099 0.125700
			CHANNELS 3 Xrotation Yrotation Zrotation
			JOINT Spine1
			{
				OFFSET 0.000000 5.730043 0.104720
				CHANNELS 3 Xrotation Yrotation Zrotation
				JOINT Spine1_split
				{
					OFFSET 0.000000 5.730043 0.104720
					CHANNELS 3 Xrotation Yrotation Zrotation
					JOINT Spine2
					{
						OFFSET 0.000000 5.730043 0.104720
						CHANNELS 3 Xrotation Yrotation Zrotation
						JOINT Neck_virtual
						{
							OFFSET 0.000000 0.000000 0.000000
							CHANNELS 3 Xrotation Yrotation Zrotation
							JOINT Neck
							{
								OFFSET 0.000000 10.314075 0.188496
								CHANNELS 3 Xrotation Yrotation Zrotation
								JOINT Head
								{
									OFFSET 0.000000 7.643700 -2.377400
									CHANNELS 3 Xrotation Yrotation Zrotation
									JOINT HeadTop_End
									{
										OFFSET 0.000000 43.788605 -13.619600
										CHANNELS 3 Xrotation Yrotation Zrotation
										End Site
										{
											OFFSET 0 0 0
										}
									}
								}
							}
						}
						JOINT LeftShoulder_virtual
						{
							OFFSET 0.000000 0.000000 0.000000
							CHANNELS 3 Xrotation Yrotation Zrotation
							JOINT LeftShoulder
							{
								OFFSET 2.196100 4.412489 0.087492
								CHANNELS 3 Xrotation Yrotation Zrotation
								JOINT LeftShoulder_split
								{
									OFFSET 2.196100 4.412489 0.087492
									CHANNELS 3 Xrotation Yrotation Zrotation
									JOINT LeftArm
									{
										OFFSET 8.771219 -2.981674 -0.026999
										CHANNELS 3 Xrotation Yrotation Zrotation
										JOINT LeftForeArm
										{
											OFFSET 8.512804 0.000000 -0.000000
											CHANNELS 3 Xrotation Yrotation Zrotation
											JOINT LeftHand
											{
												OFFSET 18.484802 0.000000 -0.000000
												CHANNELS 3 Xrotation Yrotation Zrotation
												End Site
												{
													OFFSET 0 0 0
												}
											}
										}
									}
								}
							}
						}
						JOINT RightShoulder_virtual
						{
							OFFSET 0.000000 0.000000 0.000000
							CHANNELS 3 Xrotation Yrotation Zrotation
							JOINT RightShoulder
							{
								OFFSET -2.196100 4.412496 0.070690
								CHANNELS 3 Xrotation Yrotation Zrotation
								JOINT RightShoulder_split
								{
									OFFSET -2.196100 4.412496 0.070690
									CHANNELS 3 Xrotation Yrotation Zrotation
									JOINT RightArm
									{
										OFFSET -8.771282 -2.981682 -0.094208
										CHANNELS 3 Xrotation Yrotation Zrotation
										JOINT RightForeArm
										{
											OFFSET -8.494598 0.000000 0.000000
											CHANNELS 3 Xrotation Yrotation Zrotation
											JOINT RightHand
											{
												OFFSET -18.483803 0.000000 0.000001
												CHANNELS 3 Xrotation Yrotation Zrotation
												End Site
												{
													OFFSET 0 0 0
												}
											}
										}
									}
								}
							}
						}
					}
				}
			}
		}
	}
}
MOTION
Frames: 4
Frame Time: 0.03333333
4.332672 28.436760 0.756296 0.000000 0.000000 0.000000 9.295295 -0.776854 -10.417218 -51.686845 -11.432412 33.681145 53.123459 -5.045575 -6.249287 -7.085037 3.469312 -18.554289 -0.365699 0.120705 0.916043 0.000000 0.000000 0.000000 10.019506 -1.209859 -11.073172 -30.798549 -23.791321 5.459833 49.615956 11.922269 3.011568 -31.269545 -15.675557 -11.329015 3.062999 -0.372882 -2.602819 0.000000 0.000000 0.000000 8.473231 0.554168 -11.458465 7.821141 -3.534233 -6.961085 5.382689 -1.760011 -6.268054 1.313514 0.904827 0.597591 0.000000 0.000000 0.000000 7.740543 -1.780283 -6.364110 -6.851884 0.342061 -6.795786 -29.630665 -12.586818 13.148089 0.000000 0.000000 0.000000 6.738389 -1.520670 -6.072637 0.906269 -5.062074 -7.625116 -0.842567 -4.081135 0.383887 -27.240855 7.849779 -19.371656 2.570604 -59.206518 2.364637 0.000000 0.000000 0.000000 6.498734 -1.886421 -6.074815 1.868914 -1.933035 4.205096 6.365774 4.023924 -3.071670 24.811431 -8.596811 81.199809 8.785956 80.423688 -7.779790 0.000000 0.000000 0.000000 
4.417584 28.055901 0.341133 0.000000 0.000000 0.000000 8.890289 -2.124045 -9.708497 -52.483611 -12.145551 33.384284 54.853813 -4.145252 -6.370894 -6.936310 3.913025 -18.721108 0.250207 0.178093 0.999647 0.000000 0.000000 0.000000 9.515253 -2.257559 -10.385192 -33.112877 -22.351827 5.586484 52.098105 10.960121 2.780975 -31.689131 -16.057312 -11.712744 2.797736 -0.385920 -2.660390 0.000000 0.000000 0.000000 8.048123 -0.653651 -10.907611 8.689780 -3.135974 -6.491928 5.932608 -1.496369 -5.970212 1.379127 0.907919 0.641857 0.000000 0.000000 0.000000 8.032173 -1.548845 -6.085232 -5.898145 0.220547 -6.629828 -28.569641 -11.986919 12.828776 0.000000 0.000000 0.000000 7.142814 -1.351486 -5.959377 0.951361 -5.329022 -8.551125 -0.663607 -4.051672 0.583449 -24.351484 12.150092 -22.857235 2.117034 -56.811044 2.024708 0.000000 0.000000 0.000000 7.075337 -1.606755 -5.772006 1.867359 -0.791592 5.017749 6.000441 3.668341 -3.082252 21.816773 -5.519300 79.583903 6.280802 76.451967 -5.385499 0.000000 0.000000 0.000000 
4.450942 27.802486 -0.004009 0.000000 0.000000 0.000000 8.492327 -3.262357 -9.124159 -52.809069 -12.628490 33.169799 55.847783 -3.039588 -6.523267 -6.929790 4.366942 -18.654398 0.775272 0.238228 0.914538 0.000000 0.000000 0.000000 8.948567 -3.229546 -9.782973 -34.967116 -21.018843 5.738926 53.831320 9.989467 2.644427 -31.699550 -16.332432 -11.735260 2.880135 -0.358059 -2.737724 0.000000 0.000000 0.000000 7.582835 -1.950088 -10.401768 9.374546 -2.821281 -6.139415 6.332115 -1.282701 -5.712025 1.412095 0.965175 0.502184 0.000000 0.000000 0.000000 8.181298 -1.367785 -5.821503 -5.107338 0.217643 -6.509260 -26.976558 -11.299898 12.664120 0.000000 0.000000 0.000000 7.382583 -1.210396 -5.867595 0.988235 -5.544527 -9.426649 -0.724790 -3.684539 0.821033 -21.431768 15.178173 -26.791350 1.563577 -53.433103 1.596641 0.000000 0.000000 0.000000 7.524855 -1.369267 -5.521047 1.799184 0.257762 5.829946 5.603736 3.422075 -2.999541 18.807582 -2.633590 77.753562 4.911715 72.733906 -4.159259 0.000000 0.000000 0.000000 
4.428564 27.684923 -0.269814 0.000000 0.000000 0.000000 8.019615 -4.209614 -8.671514 -52.670020 -12.953916 33.090610 56.225503 -1.956224 -6.646744 -6.904141 4.650659 -18.461872 1.130588 0.283556 0.714427 0.000000 0.000000 0.000000 8.395468 -4.118625 -9.312696 -36.239980 -19.781372 6.024002 54.631149 9.092969 2.509468 -31.117659 -16.508887 -11.272420 2.950763 -0.293585 -2.858925 0.000000 0.000000 0.000000 7.067452 -3.329352 -9.949338 9.788525 -2.573234 -5.904956 6.529245 -1.125901 -5.509181 1.346485 1.117916 0.289593 0.000000 0.000000 0.000000 8.130452 -1.228215 -5.608150 -4.455969 0.261592 -6.418040 -24.874106 -10.660149 12.692441 0.000000 0.000000 0.000000 7.423577 -1.100609 -5.802138 1.012519 -5.629254 -10.241841 -0.908491 -3.243009 1.006493 -18.630456 16.832943 -30.788587 1.075525 -49.610000 1.214545 0.000000 0.000000 0.000000 7.777948 -1.170104 -5.349169 1.676836 1.155090 6.664719 5.378967 3.360128 -2.837897 15.830746 0.022941 75.941445 4.041473 69.313429 -3.435903 0.000000 0.000000 0.000000 
